<?xml version="1.0" standalone="no"?>
<!DOCTYPE svg PUBLIC "-//W3C//DTD SVG 20010904//EN"
 "http://www.w3.org/TR/2001/REC-SVG-20010904/DTD/svg10.dtd">
<svg version="1.0" xmlns="http://www.w3.org/2000/svg"
 width="76.000000pt" height="76.000000pt" viewBox="0 0 76.000000 76.000000"
 preserveAspectRatio="xMidYMid meet">

<g transform="translate(0.000000,76.000000) scale(0.100000,-0.100000)"
fill="#000000" stroke="none">
<path d="M325 718 c-25 -19 -27 -25 -22 -72 3 -28 12 -66 20 -85 13 -31 13
-36 -7 -58 -11 -13 -44 -37 -72 -54 -40 -22 -56 -39 -68 -70 -19 -46 -46 -179
-46 -221 0 -37 32 -68 70 -68 25 0 30 -4 30 -25 0 -28 17 -38 89 -50 l44 -7
-7 31 c-3 17 -9 44 -12 61 -5 23 -3 30 10 30 24 0 19 17 -6 25 -20 6 -20 8 -5
12 15 4 17 20 17 153 0 88 -4 151 -10 155 -5 3 -10 14 -10 23 1 16 1 16 11 0
5 -10 16 -18 24 -18 14 0 55 50 55 68 0 17 -56 32 -70 19 -9 -9 -15 -7 -25 7
-17 23 -9 39 16 33 11 -3 19 -1 19 5 0 5 -9 12 -20 15 -16 4 -30 23 -16 23 2
0 19 6 38 14 38 16 52 11 62 -20 6 -19 3 -21 -19 -16 -14 2 -25 0 -25 -6 0 -6
14 -10 30 -10 29 1 30 3 30 44 0 37 -4 45 -34 63 -42 26 -57 26 -91 -1z m85
-178 c0 -5 -7 -7 -15 -4 -8 4 -15 8 -15 10 0 2 7 4 15 4 8 0 15 -4 15 -10z
m-122 -404 c46 -11 59 -30 15 -22 -16 2 -47 7 -70 11 -48 8 -51 13 -23 38 11
9 21 27 21 39 1 13 5 5 8 -17 6 -37 9 -41 49 -49z"/>
<path d="M430 509 c0 -9 -7 -19 -15 -23 -11 -4 -15 -22 -15 -74 0 -135 13
-284 25 -288 20 -8 126 36 118 49 -3 7 3 3 15 -7 27 -23 16 -42 -31 -51 -18
-4 -39 -13 -48 -21 -9 -8 -34 -13 -57 -12 -23 1 -45 -2 -49 -5 -3 -4 1 -7 10
-7 12 0 17 -9 17 -30 0 -35 10 -37 90 -11 46 14 55 21 54 40 0 16 6 24 25 27
50 10 66 31 65 82 -2 78 -13 142 -37 201 -20 52 -27 58 -87 89 -35 18 -68 38
-72 45 -5 8 -8 7 -8 -4z"/>
</g>
</svg>
