<svg width="280" height="150" viewBox="0 0 280 150" fill="none" xmlns="http://www.w3.org/2000/svg">
<mask id="mask0_306_1250" style="mask-type:alpha" maskUnits="userSpaceOnUse" x="0" y="0" width="280" height="150">
<rect width="280" height="150" rx="10" fill="#F37547"/>
</mask>
<g mask="url(#mask0_306_1250)">
<circle cx="26.8579" cy="77.9902" r="26.142" fill="white" fill-opacity="0.2"/>
<path d="M207.25 61.815C227.679 82.2435 229.749 113.295 229.749 113.295C229.749 113.295 198.698 111.225 178.269 90.7961C157.841 70.3676 155.771 39.3165 155.771 39.3165C155.771 39.3165 186.822 41.3865 207.25 61.815Z" fill="white" fill-opacity="0.2"/>
<path d="M281.332 135.897C301.761 156.326 303.831 187.377 303.831 187.377C303.831 187.377 272.78 185.307 252.351 164.878C231.923 144.45 229.853 113.399 229.853 113.399C229.853 113.399 260.904 115.469 281.332 135.897Z" fill="white" fill-opacity="0.2"/>
<path d="M178.324 135.897C198.752 115.469 229.803 113.399 229.803 113.399C229.803 113.399 227.733 144.45 207.305 164.878C186.876 185.307 155.825 187.377 155.825 187.377C155.825 187.377 157.895 156.326 178.324 135.897Z" fill="white" fill-opacity="0.2"/>
<path d="M252.297 61.9236C272.725 41.4952 303.776 39.4252 303.776 39.4252C303.776 39.4252 301.706 70.4763 281.278 90.9048C260.849 111.333 229.798 113.403 229.798 113.403C229.798 113.403 231.868 82.3521 252.297 61.9236Z" fill="white" fill-opacity="0.2"/>
<circle cx="30.1235" cy="5.27246" r="46.1235" fill="white" fill-opacity="0.2"/>
</g>
</svg>
