<svg width="281" height="76" viewBox="0 0 281 76" fill="none" xmlns="http://www.w3.org/2000/svg">
<mask id="mask0_381_199" style="mask-type:alpha" maskUnits="userSpaceOnUse" x="0" y="0" width="281" height="76">
<rect x="0.911865" y="0.831924" width="280" height="75" rx="10" fill="#F37547"/>
</mask>
<g mask="url(#mask0_381_199)">
<circle cx="27.77" cy="78.8221" r="26.142" fill="white" fill-opacity="0.2"/>
<path d="M208.162 62.6469C228.591 83.0754 230.661 114.126 230.661 114.126C230.661 114.126 199.61 112.056 179.181 91.628C158.753 71.1995 156.683 40.1484 156.683 40.1484C156.683 40.1484 187.734 42.2184 208.162 62.6469Z" fill="white" fill-opacity="0.2"/>
<path d="M253.208 62.7555C273.637 42.3271 304.688 40.2571 304.688 40.2571C304.688 40.2571 302.618 71.3082 282.19 91.7367C261.761 112.165 230.71 114.235 230.71 114.235C230.71 114.235 232.78 83.184 253.208 62.7555Z" fill="white" fill-opacity="0.2"/>
<circle cx="31.0354" cy="6.10439" r="46.1235" fill="white" fill-opacity="0.2"/>
</g>
</svg>
