<svg width="27" height="20" viewBox="0 0 27 20" fill="none" xmlns="http://www.w3.org/2000/svg">
<path fill-rule="evenodd" clip-rule="evenodd" d="M4.45633 4.84659C4.43878 4.86264 4.40432 4.89596 4.36631 4.9334C4.33875 4.96055 4.31673 4.98249 4.27115 5.02807L1.74893 7.55029C1.68288 7.61946 1.637 7.66592 1.53041 7.77251C1.47093 7.83199 1.42726 7.87767 1.3333 7.97751C1.15859 8.14658 0.974369 8.34843 0.801734 8.5615C0.638958 8.7337 0.508899 8.93426 0.418067 9.15337C0.231058 9.72311 0.231058 10.2769 0.39764 10.7912L0.419953 10.8511C0.511521 11.068 0.640803 11.2667 0.801705 11.4382C0.974492 11.6498 1.1587 11.8517 1.3535 12.0431C1.42726 12.1223 1.47093 12.168 1.53041 12.2275L1.74893 12.446L4.04851 14.7493C4.15604 14.8568 4.20885 14.9091 4.27002 14.9675C4.33523 15.0361 4.4037 15.1043 4.47244 15.169C4.48473 15.18 7.41559 18.109 7.41559 18.109C7.50611 18.1995 7.57913 18.2706 7.74338 18.4292C7.76081 18.4463 7.78728 18.4732 7.79541 18.4817C7.83769 18.5262 7.86221 18.5519 7.87856 18.5682C8.22035 18.9104 8.61329 19.1981 9.04317 19.4207C9.48363 19.64 9.94196 19.7908 10.4147 19.874C10.8614 19.947 11.3037 19.9861 11.7472 19.9925C11.8235 19.9941 11.8869 19.9948 12.0283 19.9963C12.1647 19.9976 12.2248 19.9984 12.2986 19.9999L21.032 20C21.122 19.9984 21.1829 19.9976 21.3208 19.9963C21.4634 19.9948 21.5276 19.9941 21.6095 19.9925C22.0547 19.9846 22.5003 19.9442 22.9411 19.8717C23.4243 19.7899 23.8892 19.6364 24.3231 19.4159C24.7603 19.1939 25.1594 18.9035 25.5053 18.5557C25.8493 18.2103 26.1382 17.8133 26.3612 17.3792C26.5814 16.9385 26.7327 16.4759 26.814 15.9986C26.888 15.5524 26.9272 15.1047 26.9319 14.656C26.9359 14.5636 26.9376 14.4754 26.9401 14.2801C26.9413 14.1872 26.942 14.1463 26.9429 14.096L26.9431 5.87037C26.9419 5.80628 26.9413 5.76558 26.9401 5.67444L26.9388 5.57974C26.9371 5.46033 26.9349 5.37073 26.9314 5.28151C26.9265 4.85912 26.8888 4.41712 26.819 3.97963C26.7339 3.49518 26.5831 3.03685 26.3692 2.60708C26.1445 2.16816 25.8575 1.77418 25.5149 1.43168C25.1734 1.08756 24.7769 0.798317 24.3422 0.576962C23.9103 0.360627 23.4541 0.209538 22.9834 0.126165C22.5319 0.054263 22.0888 0.0165504 21.6447 0.0111656C21.4978 0.00500414 21.3678 0.0037037 21.0801 0.0037037C20.9858 0.00202958 20.8757 0.00099015 20.7517 0.000469501C20.6585 7.76679e-05 20.5844 0 20.4172 0H12.9764C12.6427 0 12.4916 0.000632276 12.3011 0.00380656C12.0258 0.0037037 11.8958 0.00500414 11.7283 0.011703C11.3061 0.0162087 10.8637 0.053975 10.4258 0.12415C9.94196 0.209195 9.48363 0.360018 9.05386 0.573845C8.61329 0.801902 8.22035 1.08956 7.87824 1.43209C7.86221 1.44812 7.83769 1.47383 7.79707 1.51659C7.78728 1.52684 7.74338 1.57081 7.74338 1.57081C7.57913 1.7294 7.50611 1.80051 7.41559 1.89103L7.03782 2.26881L4.52525 4.78502C4.50323 4.80259 4.47967 4.82325 4.45633 4.84659ZM20.4172 1.48148C20.5823 1.48148 20.655 1.48156 20.7455 1.48194C20.8637 1.48243 20.9679 1.48342 21.0678 1.48508C21.348 1.48519 21.4649 1.48635 21.6061 1.492C21.9989 1.49705 22.3703 1.52866 22.7379 1.58711C23.055 1.64338 23.3747 1.74928 23.6743 1.89934C23.9642 2.047 24.2328 2.24287 24.4654 2.47732C24.7009 2.71271 24.8963 2.98105 25.0468 3.27473C25.1933 3.56943 25.2995 3.89196 25.358 4.22465C25.4144 4.57922 25.446 4.94926 25.4505 5.32012C25.4541 5.4152 25.4559 5.49368 25.4575 5.60174L25.4588 5.69401C25.46 5.7885 25.4607 5.83144 25.4617 5.88518L25.4616 14.0815C25.4607 14.1216 25.46 14.1646 25.4588 14.2607C25.4564 14.4431 25.4548 14.5228 25.4511 14.6191C25.4466 15.0132 25.414 15.3851 25.353 15.753C25.2967 16.0833 25.1909 16.4069 25.0397 16.7098C24.8903 17.0004 24.6919 17.2731 24.4553 17.5106C24.2201 17.7471 23.949 17.9443 23.6521 18.0951C23.3515 18.2479 23.0296 18.3542 22.6973 18.4104C22.3306 18.4707 21.9567 18.5046 21.5818 18.5112C21.5049 18.5127 21.444 18.5135 21.3061 18.5149C21.1635 18.5163 21.0993 18.5171 21.0174 18.5187L12.3134 18.5185C12.2478 18.5171 12.1844 18.5163 12.0431 18.5149C11.9067 18.5135 11.8466 18.5127 11.7727 18.5113C11.398 18.5058 11.0283 18.4732 10.6625 18.4134C10.3387 18.3564 10.0162 18.2502 9.71378 18.0998C9.42998 17.9527 9.1608 17.7556 8.92644 17.521L8.8686 17.4604C8.81111 17.4002 8.78623 17.3745 8.75762 17.3491C8.61004 17.2066 8.54286 17.1411 8.46316 17.0614L5.52612 14.1244L5.52588 14.1241L5.52547 14.1238C5.49904 14.0997 5.48298 14.0851 5.47187 14.0753C5.41879 14.0242 5.37538 13.9804 5.33434 13.9368C5.24954 13.8546 5.20308 13.8087 5.09649 13.7021L2.79691 11.3989L2.57797 11.1799C2.53251 11.1345 2.49593 11.0962 2.41212 11.0071C2.2297 10.8271 2.07663 10.6586 1.93346 10.4819L1.88866 10.4314C1.85132 10.3931 1.82032 10.3491 1.79677 10.3012C1.73978 10.1037 1.73999 9.89402 1.79741 9.69661C1.81962 9.6506 1.84928 9.6085 1.88524 9.57205L1.93573 9.51532C2.07655 9.33975 2.22804 9.173 2.38933 9.01603C2.49593 8.90381 2.53251 8.86554 2.57797 8.82008C2.6936 8.70445 2.74526 8.65214 2.80975 8.58426L5.09649 6.29786L5.31872 6.07563C5.36295 6.0314 5.38193 6.0125 5.40597 5.98882L5.45491 5.94482C5.49051 5.91291 5.51024 5.89522 5.52983 5.87563L8.08576 3.316L8.46316 2.9386C8.54286 2.85889 8.61004 2.7934 8.75762 2.65088C8.78623 2.62546 8.81111 2.59981 8.86668 2.54164L8.92612 2.47934C9.1608 2.24437 9.42998 2.04731 9.72447 1.8948C10.0162 1.74976 10.3387 1.64362 10.6714 1.58509C11.0262 1.52832 11.3958 1.49676 11.7663 1.49254C11.9287 1.48635 12.0455 1.48519 12.3134 1.48519C12.5053 1.48209 12.6509 1.48148 12.9764 1.48148H20.4172ZM13.4003 13.9207C13.3404 13.9794 13.2688 14.0274 13.1882 14.0607C12.9387 14.1637 12.6518 14.1061 12.4613 13.9148C12.2023 13.6547 12.2023 13.2342 12.4613 12.9741C12.499 12.9362 12.5406 12.9036 12.5848 12.8764L15.4614 9.99675L12.4613 6.9999L12.4702 6.991C12.4114 6.93103 12.3634 6.85941 12.3301 6.77873C12.227 6.52925 12.2846 6.24228 12.4759 6.05184C12.736 5.79287 13.1565 5.79287 13.4166 6.05184C13.4542 6.08929 13.4867 6.13048 13.5138 6.17438L16.4006 9.05656L19.3131 6.14087C19.3348 6.10962 19.3595 6.07981 19.3871 6.05183C19.5768 5.86129 19.8627 5.80393 20.1112 5.90654C20.3597 6.00915 20.5218 6.25149 20.5218 6.52035C20.5218 6.69958 20.4498 6.86702 20.3281 6.98914L20.3353 6.99638L17.3402 9.99469L20.264 12.9138C20.2901 12.933 20.3152 12.9543 20.339 12.9778C20.5295 13.1675 20.5869 13.4533 20.4843 13.7018C20.3817 13.9503 20.1393 14.1125 19.8705 14.1125C19.6912 14.1125 19.5238 14.0404 19.4017 13.9188L19.3946 13.9258L16.4008 10.9351L13.4094 13.9297L13.4003 13.9207Z" fill="#F37547"/>
</svg>
