<svg width="41" height="41" viewBox="0 0 41 41" fill="none" xmlns="http://www.w3.org/2000/svg">
<path d="M36.4063 0.413788H30.7259C30.0692 0.413788 29.5368 0.946165 29.5368 1.60284C29.5368 2.25951 30.0692 2.79189 30.7259 2.79189H36.4063C37.5139 2.79189 38.415 3.69303 38.415 4.80059V10.4811C38.415 11.1378 38.9474 11.6701 39.6041 11.6701C40.2608 11.6701 40.7931 11.1378 40.7931 10.4811V4.80059C40.7931 2.38174 38.8252 0.413788 36.4063 0.413788Z" fill="#F37547"/>
<path d="M1.39596 11.6702C2.05263 11.6702 2.58501 11.1378 2.58501 10.4812V4.80068C2.58501 3.69312 3.48615 2.79198 4.59379 2.79198H10.2742C10.9309 2.79198 11.4633 2.2596 11.4633 1.60293C11.4633 0.946257 10.9309 0.413879 10.2742 0.413879H4.59379C2.17487 0.413879 0.206909 2.38184 0.206909 4.80068V10.4812C0.206909 11.1378 0.739286 11.6702 1.39596 11.6702Z" fill="#F37547"/>
<path d="M10.2742 38.6219H4.59379C3.48615 38.6219 2.58501 37.7208 2.58501 36.6132V30.9327C2.58501 30.2761 2.05263 29.7437 1.39596 29.7437C0.739286 29.7437 0.206909 30.2761 0.206909 30.9327V36.6132C0.206909 39.0321 2.17487 41 4.59379 41H10.2742C10.9309 41 11.4633 40.4676 11.4633 39.811C11.4633 39.1543 10.9309 38.6219 10.2742 38.6219Z" fill="#F37547"/>
<path d="M39.6041 29.7437C38.9474 29.7437 38.415 30.2761 38.415 30.9327V36.6132C38.415 37.7209 37.5139 38.6219 36.4063 38.6219H30.7259C30.0692 38.6219 29.5368 39.1543 29.5368 39.811C29.5368 40.4676 30.0692 41 30.7259 41H36.4063C38.8252 41 40.7931 39.0321 40.7931 36.6132V30.9327C40.7931 30.2761 40.2608 29.7437 39.6041 29.7437Z" fill="#F37547"/>
<path d="M33.3956 8.337C25.1423 2.21498 16.2477 2.05921 7.75224 8.22848C7.22089 8.61437 7.10302 9.35792 7.48883 9.88927C7.87463 10.4205 8.61811 10.5386 9.14961 10.1527C16.8267 4.57786 24.5851 4.76248 31.9788 10.2469C32.5062 10.6381 33.2509 10.5278 33.6422 10.0003C34.0334 9.47294 33.923 8.7282 33.3956 8.337Z" fill="#F37547"/>
<path d="M20.5 8.73709C15.4486 8.73709 8.95454 12.1004 6.19333 16.2424C5.829 16.7888 5.97668 17.527 6.52309 17.8913C7.06958 18.2554 7.80782 18.1079 8.17199 17.5614C10.4612 14.1275 16.222 11.1152 20.5 11.1152C24.689 11.1152 30.4182 13.3501 32.785 17.4918C33.0045 17.876 33.4057 18.0912 33.8185 18.0912C34.7157 18.0912 35.3075 17.1129 34.8498 16.3121C32.1237 11.5413 25.7228 8.73709 20.5 8.73709Z" fill="#F37547"/>
<path d="M14.0792 28.3168C14.0792 24.4266 16.9596 21.2618 20.5001 21.2618C24.0405 21.2618 26.921 24.4266 26.921 28.3168V29.5851C26.921 30.2418 27.4533 30.7742 28.11 30.7742C28.7667 30.7742 29.2991 30.2418 29.2991 29.5851V28.3168C29.2991 23.1153 25.3519 18.8837 20.5001 18.8837C15.6483 18.8837 11.7011 23.1153 11.7011 28.3168C11.7011 33.3729 15.5026 36.0815 17.181 38.506C17.4119 38.8395 17.7826 39.0183 18.1597 39.0183C19.1064 39.0183 19.6858 37.946 19.1362 37.1523C17.3198 34.5286 14.0792 32.3528 14.0792 28.3168Z" fill="#F37547"/>
<path d="M33.6126 32.6535C37.2875 25.304 30.7527 13.8104 20.5001 13.8104C13.2819 13.8104 6.62787 19.9282 6.62787 27.6826C6.62787 30.498 6.98902 32.8791 8.75151 35.3491C9.13296 35.8836 9.87548 36.0077 10.4101 35.6263C10.9446 35.2448 11.0688 34.5023 10.6873 33.9677C9.446 32.2281 9.00597 30.5834 9.00597 27.6826C9.00597 21.5596 14.3771 16.1885 20.5001 16.1885C23.5826 16.1885 26.6268 17.548 28.8522 19.9186C32.0026 23.2743 33.1346 28.2919 31.4857 31.59C29.7691 35.0229 24.2258 34.0498 24.2258 29.5851C24.2258 20.7667 15.1926 23.4042 16.8099 29.8735C16.9691 30.5106 17.6148 30.8978 18.2518 30.7386C18.8889 30.5794 19.2763 29.9338 19.1169 29.2967C18.7016 27.6351 19.4635 26.335 20.5001 26.335C21.431 26.335 21.8477 27.9674 21.8477 29.5851C21.8477 36.5475 30.7667 38.3458 33.6126 32.6535Z" fill="#F37547"/>
</svg>
