<svg width="20" height="22" viewBox="0 0 20 22" fill="none" xmlns="http://www.w3.org/2000/svg">
<path d="M16.8867 10.1489H2.88672C1.78215 10.1489 0.886719 11.0444 0.886719 12.1489V19.1489C0.886719 20.2535 1.78215 21.1489 2.88672 21.1489H16.8867C17.9913 21.1489 18.8867 20.2535 18.8867 19.1489V12.1489C18.8867 11.0444 17.9913 10.1489 16.8867 10.1489Z" stroke="#F37547" stroke-linecap="round" stroke-linejoin="round"/>
<path d="M4.88672 10.1489V6.14893C4.88672 4.82284 5.4135 3.55107 6.35118 2.61339C7.28887 1.67571 8.56064 1.14893 9.88672 1.14893C11.2128 1.14893 12.4846 1.67571 13.4223 2.61339C14.3599 3.55107 14.8867 4.82284 14.8867 6.14893V10.1489" stroke="#F37547" stroke-linecap="round" stroke-linejoin="round"/>
</svg>
