<svg width="20" height="20" viewBox="0 0 20 20" fill="none" xmlns="http://www.w3.org/2000/svg">
<path d="M18.8867 9.64895C18.8902 10.9688 18.5818 12.2708 17.9867 13.449C17.2812 14.8607 16.1965 16.0481 14.8542 16.8782C13.5119 17.7083 11.965 18.1483 10.3867 18.149C9.06685 18.1524 7.76483 17.844 6.58672 17.249L0.886719 19.149L2.78672 13.449C2.19165 12.2708 1.88328 10.9688 1.88672 9.64895C1.88733 8.07071 2.32733 6.52381 3.15744 5.1815C3.98755 3.8392 5.17497 2.75452 6.58672 2.04895C7.76483 1.45389 9.06685 1.14551 10.3867 1.14895H10.8867C12.9711 1.26395 14.9398 2.14372 16.4159 3.61981C17.892 5.09591 18.7717 7.06461 18.8867 9.14895V9.64895Z" stroke="#F37547" stroke-linecap="round" stroke-linejoin="round"/>
</svg>
