<svg width="20" height="20" viewBox="0 0 20 20" fill="none" xmlns="http://www.w3.org/2000/svg">
<path d="M18.8485 10.958C18.6912 12.6602 18.0524 14.2824 17.0068 15.6348C15.9612 16.9872 14.552 18.0138 12.9442 18.5946C11.3365 19.1753 9.59652 19.2862 7.92804 18.9141C6.25955 18.5421 4.73153 17.7026 3.52276 16.4938C2.31399 15.285 1.47447 13.757 1.10244 12.0885C0.73041 10.42 0.84125 8.68011 1.42199 7.07233C2.00274 5.46454 3.02936 4.0554 4.38175 3.00978C5.73413 1.96417 7.35633 1.32534 9.05853 1.16803C8.06195 2.5163 7.58238 4.17748 7.70707 5.84944C7.83175 7.52141 8.5524 9.09309 9.73794 10.2786C10.9235 11.4642 12.4952 12.1848 14.1671 12.3095C15.8391 12.4342 17.5003 11.9546 18.8485 10.958V10.958Z" stroke="#F37547" stroke-linecap="round" stroke-linejoin="round"/>
</svg>
