<svg width="29" height="19" viewBox="0 0 29 19" fill="none" xmlns="http://www.w3.org/2000/svg">
<path d="M28.1001 4.32935C28.1001 2.12935 26.3001 0.329346 24.1001 0.329346H23.1001C22.5001 0.329346 22.1001 0.729346 22.1001 1.32935C22.1001 1.92935 22.5001 2.32935 23.1001 2.32935H24.1001C25.2001 2.32935 26.1001 3.22935 26.1001 4.32935V5.42935C26.1001 6.02935 26.5001 6.42935 27.1001 6.42935C27.7001 6.42935 28.1001 6.02935 28.1001 5.42935V4.32935ZM28.1001 13.3293C28.1001 12.7293 27.7001 12.3293 27.1001 12.3293C26.5001 12.3293 26.1001 12.7293 26.1001 13.3293V14.3293C26.1001 15.4293 25.2001 16.3293 24.1001 16.3293H23.1001C22.5001 16.3293 22.1001 16.7293 22.1001 17.3293C22.1001 17.9293 22.5001 18.3293 23.1001 18.3293H24.1001C26.3001 18.3293 28.1001 16.5293 28.1001 14.3293V13.3293ZM0.100098 14.3293C0.100098 16.5293 1.9001 18.3293 4.1001 18.3293H5.1001C5.7001 18.3293 6.1001 17.9293 6.1001 17.3293C6.1001 16.7293 5.7001 16.3293 5.1001 16.3293H4.1001C3.0001 16.3293 2.1001 15.4293 2.1001 14.3293V13.3293C2.1001 12.7293 1.7001 12.3293 1.1001 12.3293C0.500098 12.3293 0.100098 12.7293 0.100098 13.3293V14.3293ZM5.1001 0.329346H4.1001C1.9001 0.329346 0.100098 2.12935 0.100098 4.32935V5.32935C0.100098 5.92935 0.500098 6.32935 1.1001 6.32935C1.7001 6.32935 2.1001 5.92935 2.1001 5.32935V4.32935C2.1001 3.22935 3.0001 2.32935 4.1001 2.32935H5.1001C5.7001 2.32935 6.1001 1.92935 6.1001 1.32935C6.1001 0.729346 5.7001 0.329346 5.1001 0.329346Z" fill="#F37547"/>
<rect x="8.09998" y="5.32936" width="12" height="8" rx="1" stroke="#F37547" stroke-width="2"/>
</svg>
