<svg width="26" height="26" viewBox="0 0 26 26" fill="none" xmlns="http://www.w3.org/2000/svg">
<circle cx="12.5616" cy="13.1489" r="12.5" fill="#2F89CE"/>
<path d="M5.90583 13.3827L8.77965 14.4543L9.89993 18.0587C9.94864 18.3023 10.2409 18.351 10.4357 18.2049L12.0431 16.8897C12.1892 16.7436 12.4328 16.7436 12.6276 16.8897L15.5014 18.9842C15.6962 19.1303 15.9885 19.0329 16.0372 18.7894L18.1804 8.56059C18.2291 8.31704 17.9855 8.0735 17.742 8.17092L5.90583 12.7495C5.61358 12.8469 5.61358 13.2853 5.90583 13.3827ZM9.75382 13.9185L15.404 10.4602C15.5014 10.4115 15.5988 10.5576 15.5014 10.6063L10.8741 14.9414C10.728 15.0875 10.5819 15.2824 10.5819 15.5259L10.4357 16.6949C10.4357 16.841 10.1922 16.8897 10.1435 16.6949L9.55897 14.5517C9.41284 14.3082 9.51027 14.0159 9.75382 13.9185Z" fill="white"/>
</svg>
