<svg width="25" height="21" viewBox="0 0 25 21" fill="none" xmlns="http://www.w3.org/2000/svg">
<path d="M16.1001 19.3294V17.3294C16.1001 16.2685 15.6787 15.2511 14.9285 14.501C14.1784 13.7508 13.161 13.3294 12.1001 13.3294H5.1001C4.03923 13.3294 3.02182 13.7508 2.27167 14.501C1.52153 15.2511 1.1001 16.2685 1.1001 17.3294V19.3294" stroke="#F37547" stroke-width="2" stroke-linecap="round" stroke-linejoin="round"/>
<path d="M8.6001 9.32935C10.8092 9.32935 12.6001 7.53848 12.6001 5.32935C12.6001 3.12021 10.8092 1.32935 8.6001 1.32935C6.39096 1.32935 4.6001 3.12021 4.6001 5.32935C4.6001 7.53848 6.39096 9.32935 8.6001 9.32935Z" stroke="#F37547" stroke-width="2" stroke-linecap="round" stroke-linejoin="round"/>
<path d="M20.1001 6.32933V12.3293" stroke="#F37547" stroke-width="2" stroke-linecap="round" stroke-linejoin="round"/>
<path d="M23.1002 9.32938H17.1002" stroke="#F37547" stroke-width="2" stroke-linecap="round" stroke-linejoin="round"/>
</svg>
