<svg width="21" height="16" viewBox="0 0 21 16" fill="none" xmlns="http://www.w3.org/2000/svg">
<mask id="mask0_1652_162" style="mask-type:alpha" maskUnits="userSpaceOnUse" x="0" y="0" width="21" height="16">
<rect x="0.911865" y="0.329346" width="20" height="15" fill="white"/>
</mask>
<g mask="url(#mask0_1652_162)">
<path fill-rule="evenodd" clip-rule="evenodd" d="M0.911865 10.3293H20.9119V15.3293H0.911865V10.3293Z" fill="#14DC5A"/>
<path fill-rule="evenodd" clip-rule="evenodd" d="M0.911865 0.329346H20.9119V6.57935H0.911865V0.329346Z" fill="#0099B5"/>
<path d="M-0.338135 6.1106H-0.806885V6.57935V10.3293V10.7981H-0.338135H22.1619H22.6306V10.3293V6.57935V6.1106H22.1619H-0.338135Z" fill="#F7FCFF" stroke="#C51918" stroke-width="0.9375"/>
<path fill-rule="evenodd" clip-rule="evenodd" d="M11.3665 1.82993L10.7523 2.17836L10.9277 1.47022L10.3394 0.949844H11.1078L11.3655 0.279724L11.6677 0.949844H12.3228L11.8081 1.47022L12.0556 2.17836L11.3665 1.82993ZM8.21782 3.75141L8.832 3.40298L9.52114 3.75141L9.27365 3.04327L9.78837 2.5229H9.13329L8.83108 1.85278L8.57335 2.5229H7.8049L8.39324 3.04327L8.21782 3.75141ZM6.5222 5.0501L5.90802 5.39852L6.08344 4.69039L5.4951 4.17001H6.26355L6.52128 3.49989L6.82349 4.17001H7.47857L6.96385 4.69039L7.21134 5.39852L6.5222 5.0501ZM8.86737 5.05282L8.25319 5.40124L8.42861 4.6931L7.84027 4.17273H8.60872L8.86645 3.50261L9.16866 4.17273H9.82374L9.30902 4.6931L9.55651 5.40124L8.86737 5.05282ZM11.3674 5.05282L10.7532 5.40124L10.9286 4.6931L10.3403 4.17273H11.1087L11.3664 3.50261L11.6687 4.17273H12.3237L11.809 4.6931L12.0565 5.40124L11.3674 5.05282ZM10.7178 3.75141L11.332 3.40298L12.0211 3.75141L11.7737 3.04327L12.2884 2.5229H11.6333L11.3311 1.85278L11.0733 2.5229H10.3049L10.8932 3.04327L10.7178 3.75141ZM13.2532 5.40124L13.8674 5.05282L14.5565 5.40124L14.309 4.6931L14.8237 4.17273H14.1687L13.8664 3.50261L13.6087 4.17273H12.8403L13.4286 4.6931L13.2532 5.40124ZM13.832 3.40298L13.2178 3.75141L13.3932 3.04327L12.8049 2.5229H13.5733L13.8311 1.85278L14.1333 2.5229H14.7884L14.2737 3.04327L14.5211 3.75141L13.832 3.40298ZM13.2523 2.17836L13.8665 1.82993L14.5556 2.17836L14.3081 1.47022L14.8228 0.949844H14.1677L13.8655 0.279724L13.6078 0.949844H12.8394L13.4277 1.47022L13.2523 2.17836ZM16.3674 5.05282L15.7532 5.40124L15.9286 4.6931L15.3403 4.17273H16.1087L16.3664 3.50261L16.6687 4.17273H17.3237L16.809 4.6931L17.0565 5.40124L16.3674 5.05282ZM15.7178 3.75141L16.332 3.40298L17.0211 3.75141L16.7737 3.04327L17.2884 2.5229H16.6333L16.3311 1.85278L16.0733 2.5229H15.3049L15.8932 3.04327L15.7178 3.75141ZM16.3665 1.82993L15.7523 2.17836L15.9277 1.47022L15.3394 0.949844H16.1078L16.3655 0.279724L16.6677 0.949844H17.3228L16.8081 1.47022L17.0556 2.17836L16.3665 1.82993ZM4.58993 5.47974C4.58993 5.47974 3.08003 5.07023 3.10846 3.55555C3.13689 2.04087 4.66187 1.64761 4.66187 1.64761C4.03876 1.41165 2.19633 1.72828 2.16232 3.54019C2.12831 5.3521 4.00932 5.70905 4.58993 5.47974Z" fill="#F7FCFF"/>
</g>
</svg>
